<svg width="29" height="27" viewBox="0 0 29 27" fill="none" xmlns="http://www.w3.org/2000/svg">
<g id="OBJECTS" clip-path="url(#clip0_63_26)">
<path id="Vector" d="M17.1181 1.88924C16.4441 0.673088 15.5165 0 14.5017 0C13.4869 0 12.5593 0.669263 11.8853 1.88924L0.567762 22.3113C-0.10243 23.5198 -0.181944 24.6863 0.340578 25.5926C0.866887 26.5028 1.92329 27.0038 3.30911 27.0038H25.6905C27.0763 27.0038 28.1289 26.5028 28.659 25.5926C29.1853 24.6901 29.102 23.5237 28.4318 22.3152L17.1181 1.88924Z" fill="#FF5352"/>
<g id="Group">
<path id="Vector_2" d="M14.4981 20.6133C13.6765 20.6133 13.0063 21.2864 13.0063 22.1201C13.0063 22.9538 13.6727 23.6269 14.4981 23.6269C15.3236 23.6269 15.99 22.9538 15.99 22.1201C15.99 21.2864 15.3236 20.6133 14.4981 20.6133Z" fill="white"/>
<path id="Vector_3" d="M14.5019 18.8579C15.0471 18.8579 15.5356 18.181 15.5848 17.3549L16.1565 7.55693C16.2058 6.73087 15.5734 6.05396 14.7518 6.05396H14.2558C13.4341 6.05396 12.8018 6.73087 12.851 7.55693L13.4228 17.3549C13.472 18.181 13.9566 18.8579 14.5057 18.8579H14.5019Z" fill="white"/>
</g>
</g>
<defs>
<clipPath id="clip0_63_26">
<rect width="29" height="27" fill="white"/>
</clipPath>
</defs>
</svg>
